# xmcd CD database file
#
# Track frame offsets:
#	150
#	16718
#	31238
#	78275
#	95776
#	125372
#	138695
#	161449
#	173249
#	187167
#	199507
#	217049
#	237109
#	269853
#	290945
#
# Disc length: 4272 seconds
#
# Revision: 0
# Processed by: cddbd v1.4PL0 Copyright (c) Steve Scherf et al.
# Submitted via: CDex 1.50Beta5
#
DISCID=e010ae0f
DTITLE=Oscar Benton - Bensonhurst Blues
DYEAR=1999
DGENRE=Blues
TTITLE0=Bensonhurst blues
TTITLE1=Wooly booly boogie
TTITLE2=Draggin' around
TTITLE3=Roll on sweet Mississippi
TTITLE4=Today is yesterday's tomorrow
TTITLE5=Stop what you're doing
TTITLE6=Took me a long time
TTITLE7=Come back
TTITLE8=The long and winding road
TTITLE9=Never never leave me
TTITLE10=Baby help me
TTITLE11=The three bells
TTITLE12=I don't know
TTITLE13=Loving c.m.b.h.
TTITLE14=Somebody's love will do
EXTD=YEAR: 1999
EXTT0=
EXTT1=
EXTT2=
EXTT3=
EXTT4=
EXTT5=
EXTT6=
EXTT7=
EXTT8=
EXTT9=
EXTT10=
EXTT11=
EXTT12=
EXTT13=
EXTT14=
PLAYORDER=
